<svg width="234" height="291" viewBox="0 0 234 291" fill="none" xmlns="http://www.w3.org/2000/svg">
<g filter="url(#filter0_i_8_327)">
<path d="M137.256 75.9098C137.772 76.1734 138.277 76.4575 138.773 76.7559C139.067 76.9318 139.36 77.1077 139.663 77.289C140.135 77.5768 140.135 77.5768 140.617 77.8705C140.948 78.0706 141.279 78.2707 141.62 78.4768C144.544 80.2572 147.414 82.1163 150.276 83.9934C152.282 85.3075 154.302 86.5982 156.326 87.8842C156.671 88.1032 157.016 88.3221 157.371 88.5478C159.853 90.1237 162.34 91.6943 164.827 93.2633C168.817 95.7813 172.794 98.3193 176.773 100.854C180.341 103.127 183.91 105.398 187.488 107.655C191.767 110.354 196.034 113.074 200.302 115.793C203.87 118.066 207.439 120.337 211.016 122.594C214.305 124.668 217.588 126.752 220.865 128.843C222.026 129.584 223.189 130.32 224.358 131.049C228.615 133.716 232.224 136.218 233.611 141.267C234.226 145.694 233.7 149.579 230.997 153.218C228.962 155.304 226.577 156.829 224.111 158.353C223.375 158.815 222.638 159.277 221.902 159.739C221.362 160.077 221.362 160.077 220.811 160.422C219.428 161.29 218.057 162.177 216.688 163.068C214.058 164.776 211.418 166.468 208.775 168.157C206.157 169.831 203.54 171.507 200.933 173.199C197.5 175.426 194.051 177.628 190.604 179.832C187.734 181.667 184.87 183.509 182.007 185.354C179.692 186.845 177.373 188.327 175.049 189.803C171.746 191.901 168.454 194.014 165.176 196.152C162.238 198.066 159.285 199.954 156.33 201.842C153.869 203.415 151.413 204.996 148.964 206.587C146.357 208.277 143.732 209.939 141.106 211.599C140.773 211.81 140.439 212.021 140.096 212.238C139.8 212.425 139.504 212.612 139.199 212.805C138.362 213.338 138.362 213.338 137.578 213.989C137.348 214.147 137.119 214.305 136.882 214.467C135.281 214.103 134.138 213.115 132.868 212.11C132.436 211.771 132.004 211.433 131.572 211.094C131.344 210.914 131.115 210.734 130.879 210.549C129.621 209.564 128.349 208.597 127.079 207.628C126.536 207.213 125.993 206.798 125.451 206.384C125.179 206.176 124.908 205.969 124.629 205.755C123.298 204.738 121.967 203.721 120.637 202.703C120.107 202.298 119.578 201.894 119.049 201.489C103.177 189.351 87.3043 177.214 71.4318 165.076C71.1696 164.875 70.9075 164.675 70.6374 164.469C70.1107 164.066 69.5843 163.662 69.0583 163.258C67.7014 162.218 66.3388 161.186 64.9647 160.168C60.689 156.987 57.3947 154.231 55.466 149.11C55.3288 148.75 55.1916 148.391 55.0502 148.02C53.9469 144.185 54.6494 139.749 56.2946 136.168C58.8609 131.542 63.0897 128.796 67.3065 125.819C68.5974 124.899 69.8636 123.947 71.1284 122.99C75.6039 119.617 80.1173 116.296 84.6667 113.023C87.0162 111.333 89.3429 109.615 91.6545 107.873C94.4606 105.759 97.2921 103.68 100.123 101.6C101.023 100.937 101.922 100.273 102.821 99.6091C105.721 97.4665 108.629 95.3351 111.557 93.2295C113.906 91.5389 116.233 89.8214 118.544 88.0793C121.342 85.9721 124.164 83.8996 126.986 81.8253C127.966 81.1042 128.943 80.3812 129.921 79.6576C130.246 79.4171 130.571 79.1765 130.906 78.9287C131.534 78.4649 132.161 78.0006 132.787 77.5359C133.209 77.2242 133.209 77.2242 133.639 76.9062C133.888 76.7224 134.136 76.5386 134.392 76.3492C135.52 75.5539 135.951 75.4783 137.256 75.9098Z" fill="#1736A7"/>
<path d="M0.191519 147.242C0.639082 148.129 1.06626 149.017 1.47824 149.921C1.68525 150.362 1.89227 150.803 2.10555 151.257C2.30679 151.694 2.50803 152.131 2.71536 152.582C4.35038 155.575 7.17836 157.512 9.97177 159.333C12.0551 160.723 14.0968 162.124 16.064 163.675C17.9785 165.178 19.9527 166.56 21.9695 167.923C24.4847 169.623 26.9372 171.381 29.3542 173.218C31.3668 174.743 33.4193 176.205 35.4869 177.655C38.2717 179.608 41.0269 181.602 43.7816 183.598C45.2166 184.637 46.6527 185.676 48.0891 186.713C48.3702 186.916 48.6513 187.12 48.941 187.329C50.8223 188.687 52.7085 190.039 54.5984 191.385C56.3638 192.644 58.1204 193.915 59.8767 195.186C62.0685 196.773 64.2694 198.345 66.4825 199.901C69.518 202.037 72.5277 204.207 75.5331 206.385C76.9346 207.399 78.3377 208.412 79.7407 209.425C81.4265 210.642 83.1119 211.859 84.7956 213.079C87.5191 215.052 90.2487 217.014 92.9989 218.948C95.741 220.878 98.4631 222.833 101.177 224.801C102.381 225.674 103.59 226.541 104.801 227.404C105.111 227.626 105.421 227.848 105.741 228.076C106.339 228.503 106.937 228.93 107.537 229.354C107.805 229.546 108.072 229.738 108.348 229.935C108.585 230.104 108.821 230.272 109.065 230.446C109.618 230.9 109.618 230.9 109.992 231.646C109.776 231.783 109.56 231.92 109.338 232.061C105.402 234.56 101.47 237.064 97.5589 239.602C95.824 240.727 94.0827 241.842 92.3365 242.95C91.1466 243.707 89.96 244.469 88.774 245.231C88.5509 245.375 88.3278 245.518 88.098 245.666C87.0394 246.347 85.981 247.029 84.9226 247.71C82.4467 249.303 79.9681 250.891 77.4879 252.478C74.1915 254.586 70.8973 256.697 67.6148 258.826C64.8449 260.622 62.0625 262.397 59.2815 264.175C57.0717 265.588 54.8646 267.006 52.6641 268.433C49.6539 270.386 46.6305 272.318 43.6072 274.251C41.0255 275.902 38.4492 277.561 35.8779 279.229C34.1628 280.34 32.4417 281.442 30.7154 282.536C29.7399 283.157 28.7679 283.784 27.7966 284.411C25.8309 285.68 23.8604 286.941 21.8761 288.18C21.503 288.414 21.1299 288.648 20.7455 288.889C17.316 290.84 14.1103 291.464 10.2285 290.655C6.93529 289.706 3.91052 287.599 2.05887 284.679C0.957246 282.359 0.144655 280.195 0.145564 277.616C0.14482 277.152 0.144077 276.688 0.143311 276.209C0.144376 275.692 0.145476 275.174 0.146607 274.656C0.146444 274.108 0.146117 273.56 0.14564 273.013C0.144803 271.503 0.146302 269.994 0.148172 268.485C0.14978 266.859 0.149239 265.233 0.148955 263.607C0.148759 260.789 0.149933 257.97 0.152032 255.152C0.155063 251.077 0.156039 247.002 0.156509 242.927C0.157327 236.316 0.159814 229.705 0.163344 223.094C0.166771 216.672 0.169415 210.249 0.171003 203.826C0.171101 203.43 0.171199 203.034 0.171301 202.627C0.171788 200.641 0.17226 198.656 0.172724 196.671C0.176598 180.195 0.183177 163.718 0.191519 147.242Z" fill="#1736A7"/>
<path d="M24.4917 4.1095C25.0696 4.47585 25.0696 4.47585 25.6591 4.8496C26.8827 5.62663 28.1033 6.40822 29.3235 7.19063C30.1268 7.70376 30.9301 8.21679 31.7336 8.72973C33.3092 9.73667 34.8836 10.7455 36.4574 11.7554C38.3926 12.9963 40.3334 14.228 42.2783 15.4537C45.8349 17.6952 49.3816 19.9521 52.9274 22.2108C54.6449 23.3046 56.3628 24.3976 58.0807 25.4907C60.1482 26.8062 62.2155 28.1218 64.2824 29.4384C67.5025 31.4892 70.7242 33.5375 73.9532 35.5744C78.6459 38.535 83.3294 41.5104 87.9992 44.507C92.2892 47.2595 96.5916 49.9897 100.918 52.6847C103.711 54.4254 106.487 56.1898 109.246 57.9826C108.691 59.4102 107.961 59.9337 106.679 60.7369C104.575 62.0924 102.516 63.4985 100.47 64.9385C100.15 65.1625 99.8313 65.3865 99.5025 65.6174C98.8449 66.0791 98.1874 66.541 97.53 67.0031C95.9592 68.1065 94.3863 69.2067 92.8134 70.3071C90.9589 71.605 89.1045 72.9032 87.2508 74.2023C83.5794 76.7746 79.9024 79.3387 76.2216 81.8974C72.9647 84.1621 69.7143 86.436 66.4657 88.7125C64.604 90.017 62.7414 91.3202 60.879 92.6237C59.3367 93.7033 57.7945 94.7831 56.2528 95.8635C52.5814 98.4358 48.9044 101 45.2235 103.559C41.9666 105.823 38.7163 108.097 35.4677 110.374C33.606 111.678 31.7434 112.982 29.881 114.285C28.3386 115.365 26.7965 116.444 25.2547 117.525C22.2724 119.614 19.2877 121.7 16.2964 123.777C15.1997 124.539 14.1042 125.302 13.009 126.066C11.8182 126.897 10.6239 127.722 9.42309 128.538C5.44465 131.264 1.81016 134.408 0.704895 139.323C0.65916 139.595 0.613424 139.866 0.566303 140.146C0.443058 140.146 0.319813 140.146 0.192833 140.146C0.15863 123.754 0.132311 107.362 0.116547 90.9699C0.114679 89.0342 0.112745 87.0984 0.110771 85.1626C0.11038 84.7773 0.109987 84.3919 0.109583 83.9949C0.103085 77.7571 0.0913091 71.5194 0.0775765 65.2817C0.0636004 58.8799 0.0553079 52.4782 0.0522771 46.0765C0.0502285 42.1271 0.0437608 38.1778 0.0316193 34.2284C0.0237153 31.5192 0.0213379 28.81 0.0232764 26.1008C0.024232 24.5384 0.0227784 22.976 0.0147539 21.4135C0.00745125 19.9811 0.00713785 18.5489 0.0122237 17.1165C0.0131477 16.3569 0.00673397 15.5973 0 14.8377C0.0274427 10.6092 0.956118 6.95268 3.92753 3.8294C10.4254 -2.26388 17.6967 -0.260172 24.4917 4.1095Z" fill="#1736A7"/>
</g>
<defs>
<filter id="filter0_i_8_327" x="0" y="0" width="233.842" height="313.616" filterUnits="userSpaceOnUse" color-interpolation-filters="sRGB">
<feFlood flood-opacity="0" result="BackgroundImageFix"/>
<feBlend mode="normal" in="SourceGraphic" in2="BackgroundImageFix" result="shape"/>
<feColorMatrix in="SourceAlpha" type="matrix" values="0 0 0 0 0 0 0 0 0 0 0 0 0 0 0 0 0 0 127 0" result="hardAlpha"/>
<feOffset dy="22.6157"/>
<feGaussianBlur stdDeviation="14.9829"/>
<feComposite in2="hardAlpha" operator="arithmetic" k2="-1" k3="1"/>
<feColorMatrix type="matrix" values="0 0 0 0 0 0 0 0 0 0 0 0 0 0 0 0 0 0 0.25 0"/>
<feBlend mode="normal" in2="shape" result="effect1_innerShadow_8_327"/>
</filter>
</defs>
</svg>
